<svg data-v-0dd9719b="" version="1.0" xmlns="http://www.w3.org/2000/svg" xmlns:xlink="http://www.w3.org/1999/xlink" width="100%" height="100%" viewBox="0 0 340.000000 250.000000" preserveAspectRatio="xMidYMid meet" color-interpolation-filters="sRGB" style="margin: auto;"> <rect data-v-0dd9719b="" x="0" y="0" width="100%" height="100%" fill="#feffff" fill-opacity="1" class="background"></rect> <rect data-v-0dd9719b="" x="0" y="0" width="100%" height="100%" fill="url(#watermark)" fill-opacity="1" class="watermarklayer"></rect> <g data-v-0dd9719b="" fill="#333" class="iconlinesvg-g iconlinesvg" transform="translate(82.20409393310547,99.0631332397461)"><g class="tp-name"><g transform="translate(0, 0)"><g><g class="imagesvg"><g><rect fill="#333" fill-opacity="0" stroke-width="2" x="0" y="0" width="43.61906576163359" height="51.87373287384922" class="image-rect"></rect> <svg x="0" y="0" width="43.61906576163359" height="51.87373287384922" filtersec="colorsb6224303033" class="image-svg-svg primary" style="overflow: visible;"><svg xmlns="http://www.w3.org/2000/svg" viewBox="0 0.3702028691768646 83.79000091552734 99.6473388671875"><title>资源 36</title><path d="M.13 58.17a41.83 41.83 0 1 0 62.69-36.24 16.22 16.22 0 0 1-11 22.76 16.73 16.73 0 1 1-26.6 13.48c0-.69.05-4.77.13-5.45v-40A12.68 12.68 0 0 0 0 12.67v40.05" fill="#feb100"></path><circle cx="47.91" cy="28.64" r="11.41" fill="#333"></circle></svg></svg> <!----></g></g></g></g><g transform="translate(47, 4.08647273613721)"><g data-gra="path-name" fill="#333" transform="scale(1)"><path d="M8.74-21.97L8.74-21.97L3.78-21.97Q4.02-32.60 16.77-32.60L16.77-32.60Q28.11-32.13 28.35-23.62L28.35-23.62L28.35-5.43Q28.35-3.54 30.24-3.54L30.24-3.54Q30.47-3.54 30.94-3.54L30.94-3.54Q31.65-3.78 32.13-3.78L32.13-3.78L32.13 0Q31.65 0 30.94 0L30.94 0Q29.76 0.24 29.06 0.24L29.06 0.24Q23.39 0.24 23.62-4.25L23.62-4.25Q18.90 0.47 12.05 0.47L12.05 0.47Q2.60 0 2.13-8.27L2.13-8.27Q2.36-16.77 11.81-18.19L11.81-18.19L20.55-19.13Q23.39-19.61 23.39-22.91L23.39-22.91Q23.39-28.11 15.83-28.11L15.83-28.11Q9.21-28.11 8.74-21.97ZM23.15-10.87L23.15-10.87L23.15-16.06Q21.26-14.88 14.41-13.94L14.41-13.94Q7.80-13.46 7.80-8.98L7.80-8.98Q7.80-3.54 13.23-3.54L13.23-3.54Q22.44-4.25 23.15-10.87Z" transform="translate(-2.125984251968504, 43.22834645669291)"></path></g></g><g transform="translate(81, 4.08647273613721)"><g data-gra="path-name" fill="#333" transform="scale(1)"><path d="M9.92-18.43L9.92-18.43L9.92 0L4.49 0L4.49-31.65L9.69-31.65L9.69-26.22Q13.23-32.60 18.66-32.60L18.66-32.60Q19.13-32.60 19.61-32.36L19.61-32.36Q19.84-32.36 20.08-32.36L20.08-32.36L20.08-26.69L17.95-26.69Q10.39-26.22 9.92-18.43Z" transform="translate(-4.488188976377954, 43.22834645669291)"></path></g></g><g transform="translate(100, 4.08647273613721)"><g data-gra="path-name" fill="#333" transform="scale(1)"><path d="M9.92-18.43L9.92-18.43L9.92 0L4.49 0L4.49-31.65L9.69-31.65L9.69-26.22Q13.23-32.60 18.66-32.60L18.66-32.60Q19.13-32.60 19.61-32.36L19.61-32.36Q19.84-32.36 20.08-32.36L20.08-32.36L20.08-26.69L17.95-26.69Q10.39-26.22 9.92-18.43Z" transform="translate(-4.488188976377954, 43.22834645669291)"></path></g></g><g transform="translate(119, 4.08647273613721)"><g data-gra="path-name" fill="#333" transform="scale(1)"><path d="M4.02-31.65L9.45-31.65L9.45 0L4.02 0L4.02-31.65ZM9.45-43.23L9.45-37.32L4.02-37.32L4.02-43.23L9.45-43.23Z" transform="translate(-4.015748031496063, 43.22834645669291)"></path></g></g><g transform="translate(128, 4.08647273613721)"><g data-gra="path-name" fill="#333" transform="scale(1)"><path d="M25.51-9.92L25.51-9.92L30.71-9.92Q29.76-4.49 25.04-1.18L25.04-1.18Q22.44 0.47 16.54 0.47L16.54 0.47Q3.07 0 2.36-14.88L2.36-14.88Q2.83-32.13 17.48-32.60L17.48-32.60Q30.94-32.36 31.18-13.94L31.18-13.94L8.03-13.94Q8.03-3.54 17.24-3.54L17.24-3.54Q23.86-4.02 25.51-9.92ZM8.03-18.19L8.03-18.19L25.75-18.19Q25.04-27.64 16.77-27.64L16.77-27.64Q8.98-26.93 8.03-18.19Z" transform="translate(-2.362204724409449, 43.22834645669291)"></path></g></g><g transform="translate(160, 4.08647273613721)"><g data-gra="path-name" fill="#333" transform="scale(1)"><path d="M9.92-18.43L9.92-18.43L9.92 0L4.49 0L4.49-31.65L9.69-31.65L9.69-26.22Q13.23-32.60 18.66-32.60L18.66-32.60Q19.13-32.60 19.61-32.36L19.61-32.36Q19.84-32.36 20.08-32.36L20.08-32.36L20.08-26.69L17.95-26.69Q10.39-26.22 9.92-18.43Z" transform="translate(-4.488188976377954, 43.22834645669291)"></path></g></g></g> <!----></g><defs v-gra="od"></defs></svg>